<svg width="523" height="135" viewBox="0 0 523 135" fill="none" xmlns="http://www.w3.org/2000/svg">
<path d="M62.069 42.9948V55.1769H42.8268V61.9601H56.6701V73.5192H42.8268V92H27.4608V42.9948H62.069ZM82.6397 60.1605C84.2086 57.8994 86.1236 56.0998 88.3847 54.7616C90.6458 53.3773 92.9991 52.6851 95.4448 52.6851V69.0894H91.0841C88.177 69.0894 86.0313 69.597 84.647 70.6122C83.3088 71.6273 82.6397 73.427 82.6397 76.011V92H67.2737V52.962H82.6397V60.1605ZM97.5072 72.481C97.5072 68.3742 98.1994 64.8211 99.5837 61.8217C101.014 58.7762 102.952 56.469 105.398 54.9001C107.843 53.285 110.589 52.4775 113.635 52.4775C116.173 52.4775 118.364 53.0081 120.21 54.0695C122.056 55.0846 123.463 56.492 124.432 58.2917V52.962H139.729V92H124.432V86.6703C123.463 88.47 122.056 89.9004 120.21 90.9618C118.364 91.9769 116.173 92.4845 113.635 92.4845C110.589 92.4845 107.843 91.7001 105.398 90.1312C102.952 88.5161 101.014 86.2089 99.5837 83.2095C98.1994 80.164 97.5072 76.5878 97.5072 72.481ZM124.432 72.481C124.432 70.4045 123.902 68.7895 122.84 67.6359C121.779 66.4823 120.418 65.9054 118.757 65.9054C117.095 65.9054 115.734 66.4823 114.673 67.6359C113.612 68.7895 113.081 70.4045 113.081 72.481C113.081 74.5575 113.612 76.1725 114.673 77.3261C115.734 78.4797 117.095 79.0565 118.757 79.0565C120.418 79.0565 121.779 78.4797 122.84 77.3261C123.902 76.1725 124.432 74.5575 124.432 72.481ZM173.97 52.6851C178.446 52.6851 181.929 54.1848 184.421 57.1842C186.959 60.1836 188.228 64.2443 188.228 69.3663V92H172.931V71.3043C172.931 69.4586 172.424 68.005 171.409 66.9437C170.44 65.8362 169.124 65.2825 167.463 65.2825C165.756 65.2825 164.418 65.8362 163.449 66.9437C162.48 68.005 161.995 69.4586 161.995 71.3043V92H146.629V52.962H161.995V58.9146C163.195 57.0688 164.787 55.5691 166.771 54.4155C168.801 53.2619 171.201 52.6851 173.97 52.6851ZM219.878 92L210.257 76.4263V92H194.891V40.7799H210.257V67.5666L220.017 52.962H237.875L223.27 72.6194L238.221 92H219.878ZM283.468 59.7452C282.868 58.7762 282.014 58.0379 280.907 57.5303C279.799 56.9765 278.461 56.6997 276.892 56.6997C273.939 56.6997 271.655 57.6687 270.04 59.6068C268.425 61.4987 267.617 64.1058 267.617 67.4282C267.617 71.2582 268.517 74.1191 270.317 76.011C272.116 77.9029 274.885 78.8489 278.622 78.8489C282.176 78.8489 285.037 77.4184 287.205 74.5575H274.954V63.6905H299.941V79.0565C297.818 82.7019 294.888 85.8397 291.151 88.47C287.413 91.054 282.683 92.3461 276.961 92.3461C271.885 92.3461 267.456 91.3078 263.672 89.2313C259.934 87.1087 257.05 84.1555 255.02 80.3717C253.036 76.5878 252.043 72.2733 252.043 67.4282C252.043 62.5831 253.036 58.2686 255.02 54.4848C257.05 50.7009 259.934 47.7708 263.672 45.6943C267.409 43.5716 271.793 42.5103 276.823 42.5103C283.237 42.5103 288.451 44.0562 292.466 47.1478C296.526 50.2395 298.926 54.4386 299.664 59.7452H283.468ZM345.551 59.8144C345.551 62.9061 344.836 65.7209 343.406 68.2588C341.975 70.7506 339.853 72.7348 337.038 74.2114C334.269 75.688 330.901 76.4263 326.932 76.4263H320.841V92H305.475V42.9948H326.932C332.931 42.9948 337.522 44.5176 340.706 47.5631C343.936 50.6086 345.551 54.6924 345.551 59.8144ZM325.202 64.3135C328.386 64.3135 329.978 62.8138 329.978 59.8144C329.978 56.815 328.386 55.3154 325.202 55.3154H320.841V64.3135H325.202Z" fill="#5021FF"/>
<path d="M382.605 42.9948C387.727 42.9948 392.203 44.0331 396.033 46.1096C399.909 48.1861 402.886 51.0701 404.962 54.7616C407.039 58.4532 408.077 62.6523 408.077 67.359C408.077 72.0196 407.039 76.2187 404.962 79.9564C402.886 83.694 399.909 86.6473 396.033 88.816C392.203 90.9387 387.727 92 382.605 92H362.187V42.9948H382.605ZM381.221 78.2952C384.682 78.2952 387.427 77.3492 389.458 75.4573C391.488 73.5654 392.503 70.866 392.503 67.359C392.503 63.852 391.488 61.1526 389.458 59.2607C387.427 57.3688 384.682 56.4228 381.221 56.4228H377.553V78.2952H381.221ZM451.418 72.1349C451.418 73.1962 451.349 74.2114 451.21 75.1804H426.5C426.731 78.549 428.138 80.2332 430.722 80.2332C432.383 80.2332 433.583 79.4718 434.321 77.9491H450.587C450.033 80.7177 448.857 83.2095 447.057 85.4244C445.304 87.5932 443.066 89.3236 440.343 90.6157C437.667 91.8616 434.714 92.4845 431.483 92.4845C427.607 92.4845 424.147 91.677 421.101 90.0619C418.102 88.4469 415.748 86.1397 414.041 83.1403C412.38 80.0948 411.549 76.5417 411.549 72.481C411.549 68.4203 412.38 64.8903 414.041 61.8909C415.748 58.8454 418.102 56.5151 421.101 54.9001C424.147 53.285 427.607 52.4775 431.483 52.4775C435.36 52.4775 438.797 53.285 441.797 54.9001C444.842 56.469 447.196 58.73 448.857 61.6833C450.564 64.6365 451.418 68.1204 451.418 72.1349ZM435.844 68.4665C435.844 67.1744 435.429 66.2054 434.598 65.5594C433.768 64.8672 432.729 64.5211 431.483 64.5211C428.761 64.5211 427.169 65.8362 426.708 68.4665H435.844ZM476.073 77.3954L482.303 52.962H498.638L485.625 92H466.452L453.44 52.962H469.775L476.073 77.3954Z" fill="#444444"/>
</svg>
